# xmcd
# Track frame offsets:
# 150
# 11704
# 29099
# 47610
# 61448
# 77673
# 94780
# 109523
# 125883
# 139978
#
# Disc length: 2046 seconds
# Revision: 0
# Processed by: cddbd v1.4PL0 Copyright (c) Steve Scherf et al.
# Submitted via: VisiTrax 2.9.5.181 - For more info visit www.synapsa.com
#
DISCID=8a07fc0a
DTITLE=Barbara Mandrell - Clean Cut
DYEAR=1900
DGENRE=
TTITLE0=Happy Birthday Dear Heartache
TTITLE1=If It's Not One Thing It's Another
TTITLE2=I Can Depend On You
TTITLE3=I Wonder What The Rich Folk Are Doin' Tonight
TTITLE4=Crossword Puzzle
TTITLE5=Only A Lonely Hearts Knows
TTITLE6=Just Like Old Times
TTITLE7=Look What Love Has Done
TTITLE8=Take Care Of You
TTITLE9=Sincerely Yours
EXTD=
EXTT0=
EXTT1=
EXTT2=
EXTT3=
EXTT4=
EXTT5=
EXTT6=
EXTT7=
EXTT8=
EXTT9=
PLAYORDER=
